<svg width="16" height="11" viewBox="0 0 16 11" fill="none" xmlns="http://www.w3.org/2000/svg">
<path d="M14.6667 1.66671H10V0.333374H14.6667V1.66671ZM15.8173 8.33337C15.5227 9.19804 14.4647 10.3334 12.4167 10.3334C10.3673 10.3334 8.70733 9.18071 8.70733 6.55004C8.70733 3.94337 10.2573 2.60337 12.3513 2.60337C14.406 2.60337 15.6607 3.79137 15.9347 5.55404C15.9867 5.89137 16.0073 6.34604 15.998 6.98071H10.6467C10.7333 9.12137 12.9687 9.18871 13.7053 8.33337H15.8173ZM10.6933 5.66671H14.0033C13.9333 4.63537 13.246 4.18737 12.352 4.18737C11.3747 4.18737 10.834 4.69937 10.6933 5.66671ZM4.31067 10.3254H0V0.347374H4.63533C8.286 0.401374 8.35533 3.97671 6.44867 4.95137C8.756 5.79137 8.83333 10.3254 4.31067 10.3254ZM2 4.33337H4.38933C6.06133 4.33337 6.32667 2.33337 4.18133 2.33337H2V4.33337ZM4.26067 6.33337H2V8.34404H4.22733C6.264 8.34404 6.13933 6.33337 4.26067 6.33337Z" fill="black"/>
</svg>
