<svg width="36" height="36" viewBox="0 0 36 36" fill="none" xmlns="http://www.w3.org/2000/svg">
<path d="M18 10.0833C20.1861 10.0833 21.9583 8.31109 21.9583 6.12496C21.9583 3.93883 20.1861 2.16663 18 2.16663C15.8139 2.16663 14.0417 3.93883 14.0417 6.12496C14.0417 8.31109 15.8139 10.0833 18 10.0833Z" stroke="white" stroke-width="3" stroke-linecap="round" stroke-linejoin="round"/>
<path d="M18 33.8333C20.1861 33.8333 21.9583 32.0611 21.9583 29.875C21.9583 27.6888 20.1861 25.9166 18 25.9166C15.8139 25.9166 14.0417 27.6888 14.0417 29.875C14.0417 32.0611 15.8139 33.8333 18 33.8333Z" stroke="white" stroke-width="3" stroke-linecap="round" stroke-linejoin="round"/>
<path d="M21.9583 29.875H29.875V21.9583M2.16666 14.0417H10.0833V21.9583H2.16666V14.0417ZM25.9167 14.0417H33.8333V21.9583H25.9167V14.0417ZM14.0417 6.125H6.12499V14.0417L14.0417 6.125ZM14.0417 29.875H6.12499V21.9583L14.0417 29.875ZM21.9583 6.125H30.6667V14.0417L21.9583 6.125Z" stroke="white" stroke-width="3" stroke-linecap="round" stroke-linejoin="round"/>
</svg>
