<svg width="16" height="16" viewBox="0 0 16 16" fill="none" xmlns="http://www.w3.org/2000/svg">
<path d="M8.00381 3.95684C5.73238 3.95684 3.90024 5.76035 3.90024 7.99629C3.90024 10.2322 5.73238 12.0357 8.00381 12.0357C10.2752 12.0357 12.1074 10.2322 12.1074 7.99629C12.1074 5.76035 10.2752 3.95684 8.00381 3.95684ZM8.00381 10.6225C6.53595 10.6225 5.33595 9.44473 5.33595 7.99629C5.33595 6.54785 6.53238 5.37012 8.00381 5.37012C9.47524 5.37012 10.6717 6.54785 10.6717 7.99629C10.6717 9.44473 9.47167 10.6225 8.00381 10.6225ZM13.2324 3.7916C13.2324 4.31543 12.8038 4.73379 12.2752 4.73379C11.7431 4.73379 11.3181 4.31191 11.3181 3.7916C11.3181 3.27129 11.7467 2.84941 12.2752 2.84941C12.8038 2.84941 13.2324 3.27129 13.2324 3.7916ZM15.9502 4.74785C15.8895 3.48574 15.5967 2.36777 14.6574 1.44668C13.7217 0.525586 12.586 0.237305 11.3038 0.174023C9.98238 0.100195 6.02167 0.100195 4.70024 0.174023C3.42167 0.233789 2.28595 0.52207 1.34667 1.44316C0.40738 2.36426 0.118094 3.48223 0.0538086 4.74434C-0.0211914 6.04512 -0.0211914 9.94394 0.0538086 11.2447C0.114523 12.5068 0.40738 13.6248 1.34667 14.5459C2.28595 15.467 3.41809 15.7553 4.70024 15.8186C6.02167 15.8924 9.98238 15.8924 11.3038 15.8186C12.586 15.7588 13.7217 15.4705 14.6574 14.5459C15.5931 13.6248 15.886 12.5068 15.9502 11.2447C16.0252 9.94394 16.0252 6.04863 15.9502 4.74785ZM14.2431 12.6404C13.9645 13.3295 13.4252 13.8603 12.7217 14.1381C11.6681 14.5494 9.1681 14.4545 8.00381 14.4545C6.83952 14.4545 4.33595 14.5459 3.28595 14.1381C2.58595 13.8639 2.04667 13.333 1.76452 12.6404C1.34667 11.6033 1.44309 9.14238 1.44309 7.99629C1.44309 6.85019 1.35024 4.38574 1.76452 3.35215C2.04309 2.66309 2.58238 2.13223 3.28595 1.85449C4.33952 1.44316 6.83952 1.53809 8.00381 1.53809C9.1681 1.53809 11.6717 1.44668 12.7217 1.85449C13.4217 2.12871 13.961 2.65957 14.2431 3.35215C14.661 4.38926 14.5645 6.85019 14.5645 7.99629C14.5645 9.14238 14.661 11.6068 14.2431 12.6404Z" fill="black"/>
</svg>
