<svg width="16" height="16" viewBox="0 0 16 16" fill="none" xmlns="http://www.w3.org/2000/svg">
<path fill-rule="evenodd" clip-rule="evenodd" d="M8 0C3.58333 0 0 3.58333 0 8C0 12.4167 3.58333 16 8 16C12.408 16 16 12.4167 16 8C16 3.58333 12.408 0 8 0ZM13.284 3.68733C14.269 4.88689 14.814 6.38727 14.8287 7.93933C14.6033 7.896 12.3473 7.436 10.074 7.72267C10.0213 7.60933 9.978 7.488 9.926 7.36667C9.78461 7.03294 9.63434 6.70304 9.47533 6.37733C11.9913 5.35333 13.1367 3.87867 13.284 3.68733ZM8 1.18067C9.73533 1.18067 11.3233 1.83067 12.5293 2.898C12.408 3.07133 11.3753 4.45133 8.946 5.362C7.826 3.306 6.586 1.622 6.39467 1.362C6.92088 1.23913 7.45963 1.17805 8 1.18V1.18067ZM5.09333 1.822C5.27533 2.06533 6.49 3.75733 7.62667 5.77C4.43333 6.62067 1.61333 6.60333 1.31 6.60333C1.75267 4.486 3.18467 2.72467 5.09333 1.822ZM1.16267 8.00867V7.80067C1.458 7.80933 4.772 7.85267 8.18267 6.82867C8.382 7.21067 8.564 7.60067 8.73733 7.99133C8.65067 8.01733 8.55533 8.04333 8.46867 8.06933C4.946 9.206 3.07133 12.312 2.91533 12.5727C1.78694 11.3203 1.16253 9.69437 1.16267 8.00867ZM8 14.8373C6.48134 14.8397 5.00576 14.3327 3.80933 13.3973C3.93067 13.1453 5.31867 10.4727 9.17133 9.128C9.18867 9.11933 9.198 9.11933 9.21467 9.11067C10.178 11.6007 10.568 13.692 10.6727 14.2907C9.848 14.6467 8.946 14.8373 8 14.8373ZM11.8093 13.666C11.74 13.2493 11.3753 11.254 10.4813 8.798C12.6247 8.46 14.4987 9.01533 14.7333 9.09333C14.438 10.9933 13.3447 12.6333 11.8093 13.666Z" fill="black"/>
</svg>
