<svg width="30" height="30" viewBox="0 0 30 30" fill="none" xmlns="http://www.w3.org/2000/svg">
<path d="M29.2025 7.51084C29.3493 7.36436 29.4657 7.19037 29.5452 6.99883C29.6246 6.80729 29.6655 6.60196 29.6655 6.39459C29.6655 6.18723 29.6246 5.9819 29.5452 5.79035C29.4657 5.59881 29.3493 5.42482 29.2025 5.27834L24.7217 0.797509C24.5752 0.650728 24.4012 0.534278 24.2097 0.454824C24.0181 0.37537 23.8128 0.334473 23.6054 0.334473C23.398 0.334473 23.1927 0.37537 23.0012 0.454824C22.8096 0.534278 22.6356 0.650728 22.4892 0.797509L15.38 7.90668L9.22083 1.74751C7.98583 0.512509 5.975 0.512509 4.74 1.74751L1.73167 4.75584C0.496667 5.99084 0.496667 8.00168 1.73167 9.23668L7.89083 15.3958L0.75 22.5367V29.25H7.46333L14.62 22.0933L20.7792 28.2525C22.2833 29.7567 24.31 29.2025 25.26 28.2525L28.2683 25.2442C29.5033 24.0092 29.5033 21.9983 28.2683 20.7633L22.1092 14.6042L29.2025 7.51084ZM3.98 6.98834L6.9725 3.98001L8.98333 5.99084L7.115 7.87501L9.3475 10.1075L11.2317 8.22334L13.1317 10.1233L10.1233 13.1317L3.98 6.98834ZM21.7608 18.7683L19.8767 20.6525L22.1092 22.885L23.9933 21.0008L26.0042 23.0117L22.9958 26.02L16.8367 19.8608L19.845 16.8525L21.7608 18.7683ZM6.14917 26.0833H3.91667V23.8508L19.1325 8.63501L21.1908 10.6933L21.365 10.8675L6.14917 26.0833ZM21.365 6.38668L23.5975 4.15418L25.83 6.38668L23.5975 8.61918L21.365 6.38668Z" fill="white"/>
</svg>
