<svg width="32" height="32" viewBox="0 0 32 32" fill="none" xmlns="http://www.w3.org/2000/svg">
<path d="M22.9033 19.1666C23.03 18.1216 23.125 17.0766 23.125 16C23.125 14.9233 23.03 13.8783 22.9033 12.8333H28.255C28.5083 13.8466 28.6667 14.9075 28.6667 16C28.6667 17.0925 28.5083 18.1533 28.255 19.1666H22.9033ZM20.1008 27.97C21.0508 26.2125 21.7792 24.3125 22.2858 22.3333H26.9567C25.4227 24.9747 22.989 26.9756 20.1008 27.97ZM19.705 19.1666H12.295C12.1367 18.1216 12.0417 17.0766 12.0417 16C12.0417 14.9233 12.1367 13.8625 12.295 12.8333H19.705C19.8475 13.8625 19.9583 14.9233 19.9583 16C19.9583 17.0766 19.8475 18.1216 19.705 19.1666ZM16 28.6033C14.6858 26.7033 13.625 24.5975 12.9758 22.3333H19.0242C18.375 24.5975 17.3142 26.7033 16 28.6033ZM9.66667 9.66663H5.04333C6.56152 7.01805 8.99343 5.01398 11.8833 4.02996C10.9333 5.78746 10.2208 7.68746 9.66667 9.66663ZM5.04333 22.3333H9.66667C10.2208 24.3125 10.9333 26.2125 11.8833 27.97C8.99949 26.9751 6.57101 24.9739 5.04333 22.3333ZM3.745 19.1666C3.49167 18.1533 3.33333 17.0925 3.33333 16C3.33333 14.9075 3.49167 13.8466 3.745 12.8333H9.09667C8.97 13.8783 8.875 14.9233 8.875 16C8.875 17.0766 8.97 18.1216 9.09667 19.1666H3.745ZM16 3.38079C17.3142 5.28079 18.375 7.40246 19.0242 9.66663H12.9758C13.625 7.40246 14.6858 5.28079 16 3.38079ZM26.9567 9.66663H22.2858C21.7903 7.7056 21.0565 5.81263 20.1008 4.02996C23.0142 5.02746 25.4367 7.03829 26.9567 9.66663ZM16 0.166626C7.24417 0.166626 0.166668 7.29163 0.166668 16C0.166668 20.1992 1.83482 24.2265 4.80414 27.1958C6.27441 28.6661 8.01986 29.8324 9.94085 30.6281C11.8618 31.4238 13.9207 31.8333 16 31.8333C20.1993 31.8333 24.2265 30.1651 27.1959 27.1958C30.1652 24.2265 31.8333 20.1992 31.8333 16C31.8333 13.9207 31.4238 11.8618 30.6281 9.94081C29.8324 8.01982 28.6661 6.27436 27.1959 4.8041C25.7256 3.33384 23.9801 2.16757 22.0592 1.37187C20.1382 0.576167 18.0793 0.166626 16 0.166626Z" fill="white"/>
</svg>
